<svg width="620" height="631" viewBox="0 0 620 631" fill="none" xmlns="http://www.w3.org/2000/svg">
<path d="M116.5 631C180.841 631 233 578.841 233 514.5C233 450.159 180.841 398 116.5 398C52.1588 398 0 450.159 0 514.5C0 578.841 52.1588 631 116.5 631Z" fill="#F2F2F2" fill-opacity="0.41"/>
<path d="M325.979 587.071C258.068 587.071 192.258 563.524 139.761 520.442C87.2655 477.36 51.3316 417.408 38.0827 350.802C24.8338 284.196 35.0895 215.057 67.1024 155.164C99.1152 95.2721 150.905 48.3328 213.646 22.3443C276.388 -3.64421 346.199 -7.07394 411.186 12.6395C476.173 32.3529 532.314 73.9898 570.043 130.456C607.773 186.922 624.756 254.723 618.099 322.307C611.443 389.891 581.559 453.076 533.538 501.096C506.345 528.439 473.998 550.116 438.37 564.874C402.743 579.631 364.542 587.176 325.979 587.071ZM325.979 2.24222C165.359 2.24222 34.685 132.916 34.685 293.536C34.685 454.156 165.359 584.83 325.979 584.83C486.598 584.83 617.272 454.156 617.272 293.536C617.272 132.916 486.598 2.24222 325.979 2.24222Z" fill="white" fill-opacity="0.46"/>
<path d="M456.38 392.967L456.345 392.977L298.155 441.928L159.501 331.714L157.112 329.815L199.11 170.616L360.141 100.399L361.482 101.69L487.204 223.007L456.38 392.967Z" fill="#9E9EB7"/>
<path opacity="0.3" d="M456.345 392.977L298.155 441.928L159.501 331.714L317.124 264.425L456.345 392.977Z" fill="black"/>
<path opacity="0.1" d="M456.38 392.967L317.124 264.425L361.482 101.69L487.204 223.007L456.38 392.967Z" fill="black"/>
<path d="M186.572 219.83L186.02 218.55L348.646 148.512L478.384 273.809L477.416 274.811L348.344 150.158L186.572 219.83Z" fill="#F2F2F2"/>
<path d="M172.294 273.912L171.766 272.623L332.767 206.731L333.092 207.018L467.544 325.799L466.621 326.843L332.493 208.348L172.294 273.912Z" fill="#F2F2F2"/>
<path d="M207.989 370.723L207.515 369.413L368.001 311.419L403.578 142.826L404.941 143.113L369.203 312.466L207.989 370.723Z" fill="#F2F2F2"/>
<path d="M257.818 410.328L257.338 409.021L412.085 352.144L447.344 185.057L448.707 185.345L413.289 353.186L257.818 410.328Z" fill="#F2F2F2"/>
<path d="M399.112 411.072L258.811 289.226L258.923 288.806L302.187 125.198L303.534 125.555L260.381 288.742L400.026 410.02L399.112 411.072Z" fill="#F2F2F2"/>
<path d="M343.229 428.379L203.457 312.864L203.573 312.431L247.752 148.931L249.097 149.295L205.036 312.362L344.117 427.306L343.229 428.379Z" fill="#F2F2F2"/>
<path d="M506.357 119.88C537.294 119.88 562.375 94.8002 562.375 63.8623C562.375 32.9244 537.294 7.8443 506.357 7.8443C475.419 7.8443 450.339 32.9244 450.339 63.8623C450.339 94.8002 475.419 119.88 506.357 119.88Z" fill="#47465A" fill-opacity="0.5"/>
</svg>
