<svg width="372" height="403" viewBox="0 0 372 403" fill="none" xmlns="http://www.w3.org/2000/svg">
<path d="M316.38 323.967L316.345 323.977L158.155 372.928L19.5014 262.714L17.112 260.815L59.1097 101.616L220.141 31.3987L221.482 32.6905L347.204 154.007L316.38 323.967Z" fill="#9E9EB7"/>
<path opacity="0.3" d="M316.345 323.977L158.155 372.928L19.5013 262.714L177.124 195.425L316.345 323.977Z" fill="black"/>
<path opacity="0.1" d="M316.38 323.967L177.124 195.425L221.482 32.6905L347.204 154.007L316.38 323.967Z" fill="black"/>
<path d="M46.572 150.83L46.0203 149.55L208.646 79.5121L338.384 204.809L337.416 205.811L208.344 81.1583L46.572 150.83Z" fill="#F2F2F2"/>
<path d="M32.2937 204.912L31.7664 203.623L192.767 137.731L193.092 138.018L327.544 256.799L326.621 257.843L192.493 139.348L32.2937 204.912Z" fill="#F2F2F2"/>
<path d="M67.9888 301.723L67.5151 300.413L228.001 242.419L263.578 73.8256L264.941 74.1132L229.203 243.466L67.9888 301.723Z" fill="#F2F2F2"/>
<path d="M117.818 341.328L117.338 340.021L272.085 283.144L307.344 116.057L308.707 116.345L273.289 284.186L117.818 341.328Z" fill="#F2F2F2"/>
<path d="M259.112 342.072L118.811 220.226L118.923 219.806L162.187 56.1982L163.534 56.5549L120.381 219.742L260.026 341.02L259.112 342.072Z" fill="#F2F2F2"/>
<path d="M203.229 359.379L63.4567 243.864L63.5735 243.431L107.752 79.9311L109.097 80.2946L65.0363 243.362L204.117 358.306L203.229 359.379Z" fill="#F2F2F2"/>
</svg>
